<?xml version="1.0" encoding="utf-8"?>
<!-- Generator: Adobe Illustrator 23.0.3, SVG Export Plug-In . SVG Version: 6.00 Build 0)  -->
<svg version="1.1" id="Calque_1" xmlns="http://www.w3.org/2000/svg" xmlns:xlink="http://www.w3.org/1999/xlink" x="0px" y="0px"
	 width="618.2053833px" height="240px" viewBox="0 0 618.2053833 240" style="enable-background:new 0 0 618.2053833 240;"
	 xml:space="preserve">
<path style="fill:#494949;" d="M303.4141541,98.6141357h-80.6375885c-13.0945892,0-23.8106384-10.7358398-23.8106384-23.8311081
	v-8.9367599h79.3756256c4.5714417,0,8.2747192-3.703289,8.2747192-8.2747231c0-4.572113-3.7032776-8.2747192-8.2747192-8.2747192
	h-79.3756104v-8.916275c0-13.1150608,10.7153778-23.83111,23.8106384-23.83111h80.6375732
	c4.5714417,0,8.2747192-3.7032852,8.2747192-8.2747192C311.6888428,3.7026029,307.9855652,0,303.4141541,0h-84.6923523
	c-20.1694641,0-36.677948,16.5078068-36.677948,36.677948v41.8076782c0,20.1701355,16.5084839,36.677948,36.677948,36.677948
	h84.6923523c4.5714111,0,8.2746887-3.7026062,8.2746887-8.2747116c0-4.5721207-3.7032776-8.2747192-8.2746887-8.2747192V98.6141357z
	 M438.394989,0H337.2985535c-5.1092224,0-9.2261353,4.1373596-9.2261353,9.2261353v40.2358589h-19.4869385
	c-4.4267273,0-8.0263062,3.579071-8.0263062,8.0262909c0,4.4274254,3.5995483,8.0262871,8.0263062,8.0262871h19.4869385v39.2230225
	c0,5.7508011,4.6547241,10.4259796,10.4259949,10.4259796c5.7514954,0,10.4266663-4.6751785,10.4266663-10.4259796V65.5152512
	h89.4698792c8.9988708,0,17.190979-3.6821251,23.1281433-9.6192627c5.9378357-5.9582863,9.6199341-14.1497459,9.6199341-23.1486053
	C471.1430664,14.7285099,456.4131775,0,438.394989,0z M450.6412354,34.3813095
	c0,8.3163567-6.7643433,15.0806847-15.0806885,15.0806847h-86.6354675V16.0327816h86.6361084
	c8.3163757,0,15.080719,6.7431755,15.080719,15.0799999v3.2692108L450.6412354,34.3813095z M507.4265137,104.7996902V67.9354248
	h99.6706543c2.5444336,0,4.8615112-1.0339966,6.5370483-2.7095566c2.065979-2.0659485,3.1572876-5.1072044,2.5368652-8.3081589
	c-0.8551636-4.4117279-4.9529419-7.4557076-9.4472046-7.4557076h-99.2966919V38.5398293
	c0.0116272-0.5473709,0.0429993-1.0899658,0.092804-1.6270981c0.980072-10.5843258,10.3277283-18.4393024,20.9570618-18.4393024
	h80.4812622c2.1724243,0,4.1790161-0.7446156,5.7508545-2.0270481c0.2807007-0.20508,0.5437622-0.4333858,0.7861938-0.6825066
	c1.8216553-1.8222952,2.8849487-4.3769207,2.6863403-7.1868029C617.8330078,3.6630173,613.4485474,0,608.5222778,0h-88.4141235
	c-9.1844482,0-17.5213013,3.6821275-23.6031189,9.6608925c-6.3302917,6.1439314-10.2608337,14.7489853-10.2608337,24.2037621
	v70.9343643c0,5.7091751,4.757782,10.3638687,10.6123352,10.3638687c5.8129272,0,10.5706482-4.6547012,10.5706482-10.3638687
	L507.4265137,104.7996902z M186.7285767,150.4662628h10.6846466v-2.9375153h-10.6846466v-8.686264h11.2968597v-2.9757385
	h-14.8445282v27.486618h15.4567413v-2.9777832H186.72789v-9.9099884L186.7285767,150.4662628z M192.3967896,129.6259003
	l-3.7926941,4.7720947h2.936142l5.1802368-4.7720947H192.3967896z M217.64888,138.3940735
	c2.2836761,0,4.1994781,0.4907227,5.5460663,1.1411438l0.8565521-2.8951874
	c-0.9384613-0.488678-3.0999451-1.2216949-6.5247803-1.2216949c-8.5245056,0-14.3558502,5.8299713-14.3558502,14.4357147
	c0,9.0125122,5.8313446,13.9074554,13.5798492,13.9074554c3.3442841,0,5.9541931-0.6524658,7.2598267-1.3049469l-0.734375-2.8146667
	c-1.4278107,0.6934357-3.6295624,1.1418457-5.7910614,1.1418457c-6.6885681,0-10.5625-4.3237-10.5625-11.052536
	c0-7.2182007,4.2813873-11.3371124,10.7262878-11.3371124L217.64888,138.3940735z M240.2890167,135.418335
	c-7.3417206,0-12.7649384,5.7084961-12.7649384,14.4357147c0,8.3197784,5.0969543,13.9477234,12.3567963,13.9477234
	c7.0155029,0,12.7649384-5.0164337,12.7649384-14.4766541c0-8.1573334-4.8526154-13.9074554-12.3567963-13.9074554V135.418335z
	 M240.0849457,160.9065857c-5.5870209,0-8.7688599-5.2600861-8.7688599-11.1330566
	c0-6.0361023,2.9368439-11.4606781,8.8091278-11.4606781c5.9146271,0,8.7688599,5.7091827,8.7688599,11.1740112
	c0,6.2401733-3.1804962,11.4197083-8.8091278,11.4197083V160.9065857z M262.3619995,135.866745h-3.5490417v27.486618h15.294281
	v-2.9777832h-11.7459412v-24.5088501L262.3619995,135.866745z M283.1668701,150.4662628h10.6846619v-2.9375153h-10.6846619
	v-8.686264h11.2968445v-2.9757385h-14.8445129v27.486618h15.4567261v-2.9777832h-11.9097595v-9.9099884L283.1668701,150.4662628z
	 M318.9827881,135.662674c-2.8139648,0-5.383606,0.244339-7.545105,0.5692139v27.0409393
	c1.7950134,0.2033997,3.914856,0.3248749,6.4442139,0.3248749c5.3420105,0,9.5837708-1.3854828,12.1534424-3.9558105
	c2.5689392-2.5287018,3.95578-6.1999054,3.95578-10.6846619c0-4.4465332-1.4277954-7.6263275-3.8752747-9.8704224
	C327.710022,136.8440857,324.0804443,135.662674,318.9827881,135.662674L318.9827881,135.662674z M318.5746765,160.7434692
	c-1.3868713,0-2.6918335-0.0409546-3.588623-0.2047577v-21.6969147c0.938446-0.2033997,2.3239136-0.3651428,4.1591797-0.3651428
	c7.5041809,0,11.1746826,4.118927,11.1344299,10.602066c0,7.4222565-4.118927,11.6640472-11.7049866,11.6640472V160.7434692z
	 M338.8110046,145.3672485l2.2836914-0.2846069c1.1418152-1.8769073,2.8951721-6.2401733,3.8336182-9.6643066l-3.7114563,0.3651428
	c-0.4484253,2.9375153-1.5083313,7.1779175-2.4058228,9.5837708H338.8110046z M350.5180359,163.353363h3.5476685v-27.4866028
	h-3.5476685v27.486618V163.353363z M379.1096191,147.3656311c0,4.2827301,0.0812378,7.6283875,0.4074402,11.2968597
	l-0.0818787,0.0423126c-1.3049622-2.8139801-2.8952026-5.7112274-4.9345093-8.9312897l-8.8091125-13.9067841h-3.8746033v27.486618
	h3.3442993v-11.7459564c0-4.567337-0.0819092-7.8699951-0.2846069-11.336441l0.1228638-0.0409546
	c1.385498,2.9757385,3.2207336,6.1173096,5.1379089,9.1756287l8.7272339,13.9477234h3.5885925v-27.4865875h-3.3435669v11.4988708
	H379.1096191z M402.0787354,151.7712097h5.5869751v8.196228c-0.8162537,0.4081573-2.4065247,0.7350616-4.7318115,0.7350616
	c-6.4019165,0-10.6027222-4.118927-10.6027222-11.0927887c0-6.8933411,4.3639221-11.052536,11.0525208-11.052536
	c2.7730408,0,4.6083069,0.5296326,6.0756836,1.1820984l0.8565369-2.8951874
	c-1.1820984-0.5699005-3.6698303-1.2646942-6.8516846-1.2646942c-9.2158813,0-14.8445435,5.9958344-14.885498,14.1941071
	c0,4.2806854,1.46875,7.9512024,3.8343201,10.2362518c2.6911316,2.5675812,6.1173401,3.6282043,10.2765198,3.6282043
	c3.7114868,0,6.8516846-0.937088,8.442627-1.5083466v-13.2133179h-9.0534363v2.854248L402.0787354,151.7712097z
	 M421.6625977,150.4662628H432.34729v-2.9375153h-10.6846924v-8.686264h11.296875v-2.9757385h-14.8451843v27.486618h15.457428
	v-2.9777832h-11.9097595v-9.9099884L421.6625977,150.4662628z M427.3308411,129.625885l-3.7926941,4.7720947h2.9361267
	l5.1802673-4.7720947H427.3308411z M457.0267334,147.3656311c0,4.2827301,0.0819092,7.6283875,0.4081421,11.2968597
	l-0.0805054,0.0423126c-1.3049622-2.8139801-2.895874-5.7112274-4.9352112-8.9312897l-8.8091125-13.9067841h-3.8739319v27.486618
	h3.3435974v-11.7459564c0-4.567337-0.0812378-7.8699951-0.2853088-11.336441l0.1228333-0.0409546
	c1.3868408,2.9757385,3.221405,6.1173096,5.1379395,9.1756287l8.7272034,13.9477234h3.5892944v-27.4865875h-3.3442993v11.4988708
	H457.0267334z M468.1277161,163.353363h3.5490723v-27.4866028h-3.5490723v27.486618V163.353363z M482.9763489,150.4662628
	h10.6846619v-2.9375153h-10.6846619v-8.686264h11.296875v-2.9757385h-14.8445435v27.486618h15.457428v-2.9777832h-11.9090576
	v-9.9099884L482.9763489,150.4662628z M517.6893921,152.1370392c0,6.0770416-2.6099243,8.7702179-6.6885986,8.7702179
	c-3.6705017,0-6.4032898-2.6105957-6.4032898-8.7702179v-16.2709808h-3.588623v16.1904449
	c0,8.5231476,4.2410889,11.7452698,9.8690796,11.7452698c5.9548645,0,10.3993835-3.4671478,10.3993835-11.9090729v-16.0259399
	h-3.5879517v16.2709656V152.1370392z M540.7376709,150.2621918v-0.1228485
	c2.8965454-0.9780273,5.1802368-3.3838806,5.1802368-7.0141296c0-2.1212463-0.7746582-3.9960785-2.161499-5.2205048
	c-1.7130737-1.5493011-4.1598511-2.2420349-7.9525757-2.2420349c-2.4467773,0-5.0164185,0.2040558-6.8114014,0.5691986v27.1214905
	h3.5490723v-11.9097595h3.3442993c3.2214355,0.1235352,4.6894531,1.5499725,5.5050659,5.3440399
	c0.7753296,3.4261932,1.3868408,5.7897186,1.8352661,6.5657196h3.6705322
	c-0.5705566-1.0606232-1.2230225-3.7114716-2.119873-7.5458069c-0.6531372-2.854248-1.9178467-4.811676-4.0383911-5.5453644
	H540.7376709z M536.1702881,148.7538452h-3.6289062V138.720993c0.5706177-0.1638184,1.7950439-0.3276062,3.5067749-0.3276062
	c3.7523804,0.0409546,6.3220215,1.5922852,6.3220215,5.1392822
	C542.3701782,146.6722107,539.9630127,148.7538452,536.1702881,148.7538452z M550.6148682,153.6460571h10.0738525v-2.650177
	h-10.0738525V153.6460571z M570.112793,150.4662628h10.6846313v-2.9375153H570.112793v-8.686264h11.296814v-2.9757385h-14.8451538
	v27.486618h15.4573975v-2.9777832H570.112793v-9.9099884V150.4662628z M586.3093872,153.6467438h10.0737915v-2.6508636h-10.0737915
	v2.650177V153.6467438z M610.4974365,147.7737732c-3.7927246-1.467392-5.4648438-2.7313995-5.4648438-5.3010406
	c0-1.8768921,1.4277954-4.1196136,5.1802368-4.1196136c2.4870605,0,4.3223267,0.8162842,5.2198486,1.3049622l0.9786987-2.894516
	c-1.2237549-0.692749-3.2623901-1.3459015-6.076355-1.3459015c-5.3427124,0-8.8910522,3.180481-8.8910522,7.4632111
	c0,3.8746033,2.7730713,6.1971741,7.2598877,7.7894592c3.7108154,1.4264374,5.178833,2.8952026,5.178833,5.4648438
	c0,2.7736969-2.1205444,4.6888123-5.7507935,4.6888123c-2.446106,0-4.770752-0.8142242-6.3609619-1.7936249l-0.897522,2.9777832
	c1.4674072,0.977356,4.3632812,1.7533569,7.0140991,1.7533569c6.4844971,0,9.6254272-3.6705322,9.6254272-7.9109497
	c0-4.0383911-2.3655396-6.2811127-7.0154419-8.0767822H610.4974365z"/>
<path style="fill:#DA0913;" d="M162.7438965,24.8227921C162.7438965,11.1726427,151.5712585,0,137.9211121,0h-113.09832
	C11.1726427,0,0,11.1726427,0,24.8227921v113.09832c0,13.6501465,11.1726427,24.8227844,24.8227921,24.8227844h25.525795
	c1.1534386-10.3536224,3.5626678-30.2077789,7.2891731-52.1776962c-0.8121872-0.1501312-1.6312027-0.320755-2.450222-0.4982147
	c-31.9754543-7.002533-30.9107437-39.5718079-21.4648666-66.1690979c1.9724579-6.0333862,4.6205902-11.8961029,7.7601509-17.3902779
	c0.0136185-0.0273266,0.0272827-0.0546112,0.0477371-0.0819397c3.2692375-5.9923935,6.7363434-10.9883518,9.8963585-14.3462763
	c2.5457802-3.0781155,6.906971,1.3445196,4.3885574,4.4089708c0,0-0.0068321,0.0068321-0.0136642,0.0204945
	c-0.5596581,0.8121872-16.113987,23.5260105-20.2704773,45.2297821c-0.0750656,0.6825066-0.1365089,1.3581848-0.1774597,2.020195
	c-0.8258057,12.5718193,4.0199814,25.5052986,13.5273018,32.5965614c3.0098839,2.2590942,6.4974861,3.9175873,10.4150734,4.7980499
	c0.0818939-0.4231567,0.1569633-0.846344,0.232029-1.2695007c8.0604515-43.564415,21.1099892-90.6505966,39.5854301-87.3882294
	c6.5111465,1.1466074,12.4899139,3.1941299,17.8544159,5.9037066c1.6789856,0.846302,3.2896881,1.7540493,4.845787,2.7231979
	c19.3968887,12.0667248,29.1771927,33.0674896,24.9592972,49.1405334
	c-4.8253326,18.3867569-33.1152267,42.1926117-71.4107513,42.0561066c-0.6893387,0-1.3786392-0.0136642-2.0679779-0.0341187
	c-0.9350281,5.2894363-1.8700638,10.8518448-2.8119278,16.680481c-1.6926422,10.3809204-3.4125366,21.6286621-5.2006989,33.7772827
	h72.6392593c13.6501465,0,24.8227844-11.1726379,24.8227844-24.8227844V24.8227921z M11.8492355,210.584198
	c-4.5442734-1.7595978-6.5478058-3.2739105-6.5478058-6.3525238c0-2.247467,1.7102675-4.9355164,6.2055521-4.9355164
	c2.9809713,0,5.1797915,0.9284515,6.2058859,1.5636444l1.1727257-3.4691925
	c-1.4170036-0.8304749-3.9090881-1.6122894-7.2319794-1.6122894c-6.4011731,0-10.6521807,3.8111115-10.6521807,8.9419098
	c0,4.5935974,3.3228912,7.427597,8.6976366,9.3818054c4.4466295,1.6616211,6.2058859,3.4691925,6.2058859,6.4991608
	c0,3.3225555-2.5410738,5.6193542-6.8897257,5.6193542c-2.931983,0-5.6683445-0.9284515-7.5738997-2.1501617l-1.124071,3.5671692
	c1.7592561,1.1723938,5.2284465,2.1494904,8.404705,2.1494904c7.769187,0,11.4829874-4.4462891,11.4829874-9.527771
	C20.2049522,215.4217377,17.4196014,212.7336884,11.8492355,210.584198z M35.5457077,208.5313416
	c2.3454514,0,3.9580765,0.5865326,4.984169,1.1244049l0.9771042-3.2738953
	c-1.1723938-0.6351929-3.4202003-1.2703705-5.9612732-1.2703705c-7.7201996,0-12.7043705,5.3260803-12.7043705,12.6063843
	c0,7.2323151,4.6419163,12.0691833,11.775919,12.0691833c3.1762581,0,5.6683426-0.8304749,6.7920799-1.3676758l-0.7328262-3.2252502
	c-1.2217178,0.5372009-2.8340073,1.1237335-5.2774353,1.1237335c-4.6909065,0-8.2090855-3.3712158-8.2090855-8.8439331
	C27.1899891,212.5870667,30.1219711,208.5313416,35.5457077,208.5313416z M53.8684311,205.1114807
	c-6.8900604,0-11.0920792,5.5700226-11.0920792,12.704361s4.3486519,11.9712067,11.6296196,11.9712067
	c3.762455,0,6.4008408-0.8304749,7.9158211-1.5143127l-0.7818184-3.0786133
	c-1.5636368,0.6838379-3.4695244,1.2217102-6.5478058,1.2217102c-4.3489838,0-8.0137978-2.394104-8.1114388-8.2094116h16.6137886
	c0.0976448-0.4885559,0.1466331-1.1237335,0.1466331-2.0028687
	C63.6411514,211.8545685,61.637619,205.1114807,53.8684311,205.1114807z M46.929718,215.1284637
	c0.3419189-2.9806366,2.1988182-6.9390411,6.5964584-6.9390411c4.8375397,0,6.0102654,4.2516785,5.961277,6.9390411H46.929718z
	 M83.9170837,214.7372284c0-4.6909027-1.7589188-9.6257477-8.9908981-9.6257477
	c-2.9806366,0-5.8636322,0.8304596-7.8181763,2.0521851l0.9774399,2.8826599
	c1.6612778-1.1237335,3.9577408-1.7589264,6.2055511-1.7589264c4.8375397-0.0486603,5.3750763,3.5178528,5.3750763,5.4240723
	v0.4885559c-9.1375351-0.0493317-14.2193451,3.0779419-14.2193451,8.7952728c0,3.4205322,2.4430923,6.791748,7.2316437,6.791748
	c3.3718796,0,5.9126205-1.6609497,7.2319794-3.5178375h0.1466293l0.3419266,2.9806366h3.8600922
	c-0.2442703-1.6122894-0.3419189-3.6158295-0.3419189-5.6680145V214.7372284z M79.7637253,221.2850342
	c0,0.3912354-0.0489883,0.8797913-0.1956253,1.3683472c-0.6838379,2.0035248-2.6873703,3.9577484-5.8146439,3.9577484
	c-2.1498337,0-4.0067291-1.2703705-4.0067291-4.1043854c0-4.5935974,5.326088-5.424057,10.0169983-5.3260803V221.2850342z
	 M108.9822388,205.6000214h-4.2999954v14.4633026c0,0.831131-0.146637,1.6129456-0.3909149,2.198822
	c-0.7818146,1.9548645-2.785347,3.9584045-5.6683426,3.9584045c-3.8600998,0-5.2770996-3.0786133-5.2770996-7.574234v-13.0462952
	h-4.2999954v13.8281097c0,8.2580719,4.4466248,10.3589172,8.1600952,10.3589172c4.2023544,0,6.7430954-2.4920807,7.8181763-4.397644
	h0.097641l0.244278,3.8604431h3.8114471c-0.146637-1.8569031-0.1952896-4.0070648-0.1952896-6.4991608V205.6000214z
	 M132.7276917,205.6000214h-4.6909027l-3.2739029,5.0328369c-0.8304672,1.2703705-1.6122894,2.4920807-2.394104,3.8604279
	h-0.0976486c-0.7818146-1.3196869-1.5149765-2.4920807-2.443428-3.8117828l-3.3715439-5.0814819h-4.7885513l8.0137939,11.5806427
	l-8.4047012,12.0691833h4.7398911l3.4202042-5.3260956c0.9284515-1.4170074,1.7102661-2.6873779,2.4920883-4.1043701h0.0979767
	c0.8304672,1.4169922,1.6122894,2.7360229,2.540741,4.1043701l3.5181808,5.3260956h4.8375397l-8.2580795-12.2158203
	L132.7276917,205.6000214z M190.8604584,199.9320221h10.017334v29.3178253h4.2996674v-29.3178253h10.065979v-3.6165009h-24.3829803
	V199.9320221z M220.3235931,210.2909393h-0.146637l-0.1956177-4.690918h-3.7624512
	c0.1466217,2.198822,0.1956177,4.592926,0.1956177,7.3782806v16.2715454h4.2999878v-12.6070709
	c0-0.6838379,0.0486603-1.4169922,0.146637-2.0028534c0.5861969-3.2252502,2.7360382-5.4727325,5.7656555-5.4727325
	c0.5865326,0,1.0260925,0,1.4659882,0.0973206v-4.0557251c-0.3908997-0.0486603-0.7328186-0.0973053-1.1727142-0.0973053
	C224.0370636,205.1114807,221.3983459,207.1143341,220.3235931,210.2909393z M241.7735901,205.1114807
	c-6.4988251,0-11.7272644,4.641571-11.7272644,12.509079c0,7.4755859,4.9841614,12.1664886,11.3363495,12.1664886
	c5.6680145,0,11.7759247-3.8111115,11.7759247-12.5577393C253.1585999,210.0463257,248.5656738,205.1114807,241.7735901,205.1114807
	z M241.5779724,226.5624695c-4.2020264,0-7.1340027-3.9090881-7.1340027-9.0885468
	c0-4.4469604,2.1988068-9.1378632,7.2316437-9.1378632c5.0821381,0,7.0853424,5.0328217,7.0853424,9.0398865
	C248.7609558,222.7020416,245.6826782,226.5624695,241.5779724,226.5624695z M267.9627991,219.4767914
	c-0.5865173,1.7102661-1.0750732,3.5185089-1.5149841,4.9355164h-0.0976257
	c-0.3908997-1.4170074-0.9771118-3.2739105-1.5636292-4.8375397l-5.1304932-13.9747467h-4.6908875l8.6976318,21.792923
	c0.2442627,0.5378723,0.3419189,0.8797913,0.3419189,1.1237335c0,0.2446136-0.146637,0.5865326-0.3419189,1.0264282
	c-1.0260925,2.198822-2.4430847,3.8604279-3.6158142,4.7888794c-1.2707214,1.0744171-2.6877136,1.7589264-3.7627869,2.1008453
	L257.3592834,240c1.0750732-0.1959534,3.1272583-0.9284515,5.2774353-2.7366943
	c2.9316406-2.5894012,5.0328369-6.6944427,8.1114502-14.8052063l6.4498291-16.858078h-4.544281L267.9627991,219.4767914z
	 M289.8520203,205.1114807c-6.8900452,0-11.0920715,5.5700226-11.0920715,12.704361s4.3486633,11.9712067,11.6296387,11.9712067
	c3.7624512,0,6.4008179-0.8304749,7.915802-1.5143127l-0.7817993-3.0786133
	c-1.5636597,0.6838379-3.4695435,1.2217102-6.547821,1.2217102c-4.3489685,0-8.0137939-2.394104-8.1114502-8.2094116h16.6138
	c0.0976562-0.4885559,0.146637-1.1237335,0.146637-2.0028687
	C299.6247559,211.8545685,297.6212158,205.1114807,289.8520203,205.1114807z M282.9133301,215.1284637
	c0.3419189-2.9806366,2.198822-6.9390411,6.5964661-6.9390411c4.8375244,0,6.0102539,4.2516785,5.9612732,6.9390411H282.9133301z
	 M312.4244385,215.5683746c-3.0786133-1.2217255-4.4466248-2.1015167-4.4466248-4.0557251
	c0-1.7595978,1.3680115-3.2252502,3.9087524-3.2252502c2.198822,0,3.9090881,0.8304749,4.8375244,1.4170074l1.0264282-3.1272736
	c-1.2703552-0.8304749-3.3718872-1.4656525-5.7659912-1.4656525c-5.0328064,0-8.1600952,3.1272583-8.1600952,6.9383698
	c0,2.8340149,2.00354,5.1308136,6.3031921,6.6944427c3.1272888,1.1723938,4.348999,2.2474823,4.348999,4.2996674
	c0,2.0035248-1.4656677,3.5185089-4.544281,3.5185089c-2.1498108,0-4.397644-0.8797913-5.71698-1.6616058l-1.0260925,3.225235
	c1.6612549,0.9771118,4.0556946,1.6609497,6.6451111,1.6609497c5.5220337,0,8.795929-2.9313202,8.795929-7.133667
	C318.6303101,219.1348724,316.4801636,217.0826874,312.4244385,215.5683746z M409.5657654,196.3155212l-5.8639526,15.9296265
	c-1.4656677,4.1536865-2.6387329,7.769516-3.5178528,11.0920715h-0.0979919
	c-0.8797913-3.4205322-1.9548645-7.0363617-3.3225403-11.0920715l-5.6193542-15.9296265h-5.4240723l-2.296814,32.9343262h4.0557251
	l0.8797913-14.1213837c0.2932739-4.9841614,0.5372314-10.4568939,0.6351929-14.561264h0.0979919
	c0.9284363,3.9090881,2.198822,8.1107788,3.7624512,12.8016815l5.3747253,15.6856689h3.2252502l5.8146667-15.9782715
	c1.6609192-4.5449371,2.9806213-8.6979675,4.1530151-12.509079h0.0979919c0,4.0557251,0.2932434,9.6257477,0.5372009,14.218689
	l0.7817993,14.4639587h4.2023621l-2.0521851-32.9343262H409.5657654z M433.6028137,205.1114807
	c-6.4991455,0-11.7272644,4.641571-11.7272644,12.509079c0,7.4755859,4.9835205,12.1664886,11.3360291,12.1664886
	c5.6680298,0,11.7759094-3.8111115,11.7759094-12.5577393C444.9874878,210.0463257,440.3945618,205.1114807,433.6028137,205.1114807
	z M433.4068604,226.5624695c-4.2023315,0-7.133667-3.9090881-7.133667-9.0885468
	c0-4.4469604,2.198822-9.1378632,7.2316589-9.1378632c5.0814819,0,7.085022,5.0328217,7.085022,9.0398865
	C440.5898743,222.7020416,437.5119019,226.5624695,433.4068604,226.5624695z M462.0388489,205.1114807
	c-3.9090881,0-6.6457825,2.1988068-7.8181763,4.3976288h-0.0979614l-0.2439575-3.9090881h-3.8117676
	c0.146637,1.9542084,0.1959534,3.9090881,0.1959534,6.4011841v17.248642h4.2996521v-14.2193604
	c0-0.7331543,0.0979919-1.4656525,0.2932739-2.0035248c0.7818298-2.394104,2.9806519-4.397644,5.7659912-4.397644
	c4.0557251,0,5.4727173,3.1759338,5.4727173,6.9877014v13.6328278h4.2996826V215.177124
	C470.3942566,207.0656891,465.3127747,205.1114807,462.0388489,205.1114807z M482.2174683,199.9320221l-4.2023315,1.2703705
	v4.3976288h-3.6651611v3.2739105h3.6651611v12.8996582c0,2.7853394,0.4885559,4.8861847,1.6609497,6.2058868
	c1.0264282,1.1237335,2.6387024,1.8075714,4.6422424,1.8075714c1.6616211,0,2.9806213-0.2926025,3.8110962-0.5858612
	l-0.195282-3.2739105c-0.6351929,0.1952972-1.3190308,0.2932739-2.4920654,0.2932739
	c-2.3941345,0-3.2246094-1.6616211-3.2246094-4.5935974v-12.7530212h6.1565857v-3.2739105h-6.1565857V199.9320221z
	 M505.4260559,205.1114807c-3.8604126,0-6.6944275,1.6609344-8.4046936,4.5442657h-0.0979919l-0.243927-4.0557251h-3.8117676
	c0.0979614,2.2474823,0.1959534,4.690918,0.1959534,7.7201996v25.6046906h4.2510071v-12.8509979h0.09729
	c1.4170227,2.345459,4.153717,3.7131348,7.2809753,3.7131348c5.5707092,0,10.7987976-4.2016907,10.7987976-12.704361
	C515.4916992,209.9490051,511.1913757,205.1114807,505.4260559,205.1114807z M503.9597473,226.4158325
	c-3.0779419,0-5.6680298-2.0521851-6.4498291-5.0328217c-0.146637-0.5378723-0.195282-1.1237335-0.195282-1.7595825v-4.1043854
	c0-0.5372009,0.146637-1.1723938,0.2932434-1.7102661c0.7818298-3.2245789,3.5664978-5.2774353,6.4985046-5.2774353
	c4.5442505,0,7.0363464,4.0557251,7.0363464,8.7466278C511.1427307,222.7020416,508.5040283,226.4158325,503.9597473,226.4158325z
	 M530.098999,205.1114807c-6.8897705,0-11.0921021,5.5700226-11.0921021,12.704361s4.348999,11.9712067,11.6292725,11.9712067
	c3.7631226,0,6.4011841-0.8304749,7.9161987-1.5143127l-0.7818604-3.0786133
	c-1.5635986,0.6838379-3.4691772,1.2217102-6.5477905,1.2217102c-4.348999,0-8.0134888-2.394104-8.1114502-8.2094116h16.6141357
	c0.09729-0.4885559,0.1466064-1.1237335,0.1466064-2.0028687
	C539.8720093,211.8545685,537.8684692,205.1114807,530.098999,205.1114807z M523.1605835,215.1284637
	c0.3419189-2.9806366,2.1988525-6.9390411,6.5964966-6.9390411c4.8375244,0,6.0098877,4.2516785,5.9612427,6.9390411H523.1605835z
	 M545.0494995,229.2498474h4.2996826v-34.6932373h-4.2996826V229.2498474z M556.4328613,229.2498474h4.300293v-34.6932373h-4.300293
	V229.2498474z M569.96698,196.2668762c-1.612915,0-2.6873169,1.2217102-2.6873169,2.6873627
	c0,1.4663239,1.0257568,2.6387177,2.5893555,2.6387177c1.7102661,0,2.7366943-1.1723938,2.7366943-2.6387177
	C572.6057129,197.4399261,571.5306396,196.2668762,569.96698,196.2668762z M567.8168335,229.2498474h4.300354v-23.649826h-4.300354
	V229.2498474z M588.4853516,205.1114807c-6.8903809,0-11.0921021,5.5700226-11.0921021,12.704361
	s4.3483276,11.9712067,11.6293335,11.9712067c3.7624512,0,6.401123-0.8304749,7.9161377-1.5143127l-0.7817993-3.0786133
	c-1.5636597,0.6838379-3.4699097,1.2217102-6.5478516,1.2217102c-4.348938,0-8.0140991-2.394104-8.1113892-8.2094116h16.6134033
	c0.0980225-0.4885559,0.1466675-1.1237335,0.1466675-2.0028687
	C598.2577515,211.8545685,596.2542114,205.1114807,588.4853516,205.1114807z M581.5463257,215.1284637
	c0.3419189-2.9806366,2.1987915-6.9390411,6.5964355-6.9390411c4.8375244,0,6.0106201,4.2516785,5.9613037,6.9390411H581.5463257z
	 M613.9407349,205.1114807c-2.8826294,0-5.5213623,2.0028534-6.5964355,5.1794586h-0.1466675l-0.1952515-4.690918h-3.7624512
	c0.1466064,2.198822,0.1952515,4.592926,0.1952515,7.3782806v16.2715454h4.300354v-12.6070709
	c0-0.6838379,0.048645-1.4169922,0.1459351-2.0028534c0.5865479-3.2252502,2.7366943-5.4727325,5.7659912-5.4727325
	c0.5865479,0,1.0264282,0,1.4663696,0.0973206v-4.0557251C614.7225952,205.1601257,614.3806152,205.1114807,613.9407349,205.1114807
	z M162.1111755,230.658844h4.2999878v-34.6932373h-4.2999878V230.658844z M348.4953613,230.658844h4.3003235v-34.6932373h-4.3003235
	V230.658844z M136.733551,62.6473389c0.9896088-11.322773-5.4191132-39.3192406-23.6830139-38.5821228
	c-1.2626648,0.047781-2.5935211,0.232029-3.9721985,0.5801144C96.6020813,27.737112,88.1731339,43.7828674,80.3993683,76.8093719
	c-1.7608871,7.4598007-3.4876022,15.7863998-5.2143707,25.0275726
	C115.0843964,103.0381241,135.8053131,73.3081055,136.733551,62.6473389z"/>
</svg>
